<!DOCTYPE svg PUBLIC "-//W3C//DTD SVG 1.1//EN" "http://www.w3.org/Graphics/SVG/1.1/DTD/svg11.dtd">
<!-- Uploaded to: SVG Repo, www.svgrepo.com, Transformed by: SVG Repo Mixer Tools -->
<svg fill="#a58356" height="800px" width="800px" version="1.2" baseProfile="tiny" id="Layer_1" xmlns="http://www.w3.org/2000/svg" xmlns:xlink="http://www.w3.org/1999/xlink" viewBox="-351 153 256 256" xml:space="preserve">
<g id="SVGRepo_bgCarrier" stroke-width="0"/>
<g id="SVGRepo_tracerCarrier" stroke-linecap="round" stroke-linejoin="round"/>
<g id="SVGRepo_iconCarrier"> <path d="M-224.4,158.5l-120.8,60.9V403h9.7V225.2l111.2-55.7l111.3,56V403h9.5V219.4L-224.4,158.5z M-163.1,325.7l-11.6-29.9 c-2.1-5.6-6.9-10.5-15.8-10.5h-16.3h-27.8H-251c-8.8,0-13.5,4.8-15.8,10.5l-11.6,29.9c-4.5,0.6-12.7,5.9-12.7,16.1v37.9h11.3v12.1 c0,14.9,21.2,14.7,21.2,0v-12.1h38h38v12.1c0,14.7,21.2,14.9,21.2,0v-12.1h11.3v-37.9C-150.5,331.6-158.6,326.1-163.1,325.7z M-269,356.9c-5.4,0-9.8-4.5-9.8-10s4.4-10,9.8-10s9.8,4.5,9.8,10C-259.2,352.3-263.5,356.9-269,356.9z M-220.7,325.4h-45.7 l8.7-23.4c1.1-3.3,2.7-5.6,6.6-5.8h30.4h30.4c3.8,0,5.5,2.5,6.6,5.8l8.7,23.4H-220.7z M-172.5,356.9c-5.4,0-9.8-4.5-9.8-10 s4.4-10,9.8-10c5.4,0,9.8,4.5,9.8,10C-162.7,352.3-167.3,356.9-172.5,356.9z M-257.3,273.9c10.6,0,20.1-5.9,24.9-14.6h14.8l9.2-9.2 l7.2,7.2l6.9-6.9l7,7.2l7.2-7.2l7.2,7.2l12-12.1c1.8-1.8,1.8-3,0-4.8l-9.9-10H-232c-5.2-9-14.5-14.8-25.2-14.8 c-16,0-28.9,13.1-28.9,29.2C-286.1,260.9-273.1,273.9-257.3,273.9z M-269.9,236.9c4.3,0,7.6,3.5,7.6,7.7c0,4.3-3.5,7.7-7.6,7.7 s-7.6-3.5-7.6-7.7C-277.5,240.3-274.1,236.9-269.9,236.9z"/> </g>
</svg>